<svg width="24" height="24" viewBox="0 0 24 24" fill="none" xmlns="http://www.w3.org/2000/svg">
<path d="M13 1H15V3H13V1Z" fill="#141414"/>
<path d="M11 3H13V5H11V3Z" fill="#141414"/>
<path d="M9 5H11V7H9V5Z" fill="#141414"/>
<path d="M7 7H9V9H7V7Z" fill="#141414"/>
<path d="M5 9H7V11H5V9Z" fill="#141414"/>
<path d="M3 11H5V13H3V11Z" fill="#141414"/>
<path d="M5 13H7V15H5V13Z" fill="#141414"/>
<path d="M1 15H3V17H1V15Z" fill="#141414"/>
<path d="M1 13H3V15H1V13Z" fill="#141414"/>
<path d="M7 15H9V17H7V15Z" fill="#141414"/>
<path d="M3 17H5V19H3V17Z" fill="#141414"/>
<path d="M1 19H11V21H1V19Z" fill="#141414"/>
<path d="M9 17H11V19H9V17Z" fill="#141414"/>
<path d="M11 19H13V21H11V19Z" fill="#141414"/>
<path d="M15 19H17V21H15V19Z" fill="#141414"/>
<path d="M19 19H21V21H19V19Z" fill="#141414"/>
<path d="M15 3H17V5H15V3Z" fill="#141414"/>
<path d="M17 5H19V7H17V5Z" fill="#141414"/>
<path d="M19 7H21V9H19V7Z" fill="#141414"/>
<path d="M21 9H23V11H21V9Z" fill="#141414"/>
<path d="M19 11H21V13H19V11Z" fill="#141414"/>
<path d="M17 13H19V15H17V13Z" fill="#141414"/>
<path d="M15 15H17V17H15V15Z" fill="#141414"/>
<path d="M13 17H15V19H13V17Z" fill="#141414"/>
</svg>
