<svg viewBox="0 0 243 47" fill="none" xmlns="http://www.w3.org/2000/svg">
  <path d="M196.548 5.75928H190.776V40.3219H196.548V5.75928Z" fill="#141414" />
  <path d="M202.328 5.75928H196.556V40.3219H202.328V5.75928Z" fill="#F4DE5B" />
  <path d="M46.2512 5.75928H40.4795V34.5624H46.2512V5.75928Z" fill="#141414" />
  <path d="M75.143 11.522H69.3713V40.3251H75.143V11.522Z" fill="#141414" />
  <path d="M109.829 11.522H104.057V34.5628H109.829V11.522Z" fill="#141414" />
  <path d="M92.4858 11.522H86.7141V40.3251H92.4858V11.522Z" fill="#141414" />
  <path d="M225.453 11.522H219.681V40.3251H225.453V11.522Z" fill="#141414" />
  <path d="M98.2685 11.522H92.4968V40.3251H98.2685V11.522Z" fill="#F7CACA" />
  <path d="M17.3405 17.2812H11.5605V40.3221H17.3405V17.2812Z" fill="#F4DE5B" />
  <path d="M52.0341 5.75928H46.2542V28.8001H52.0341V5.75928Z" fill="#49E8E0" />
  <path d="M11.56 5.75928H5.78833V40.3219H11.56V11.5216H23.1228V5.75928H11.56Z" fill="#141414" />
  <path d="M75.1538 5.76246V11.522H86.7166V5.76246L75.1538 5.76246Z" fill="#141414" />
  <path d="M138.745 5.76246V11.522H150.308V5.76246L138.745 5.76246Z" fill="#141414" />
  <path d="M208.119 5.75953V11.519H219.682V5.75953L208.119 5.75953Z" fill="#141414" />
  <path d="M225.461 5.75953V11.519H237.024V5.75953L225.461 5.75953Z" fill="#141414" />
  <path d="M167.648 23.0413V28.8008H179.211V23.0413H167.648Z" fill="#141414" />
  <path
    d="M150.306 23.041V17.2815H138.773V11.522H133.002V40.3223H138.743H138.773H150.306V34.5628H138.773V23.041H150.306Z"
    fill="#141414" />
  <path d="M109.84 5.76246V11.522H121.402V5.76246L109.84 5.76246Z" fill="#141414" />
  <path d="M109.837 34.5652V40.3247H121.4V34.5652H109.837Z" fill="#141414" />
  <path d="M46.2485 34.5632V40.3228H57.8113V34.5632H46.2485Z" fill="#141414" />
  <path d="M23.1233 23.0415H28.9033V11.5197H23.1233V23.0415Z" fill="#141414" />
  <path d="M28.909 23.0415H34.689V11.5197H28.909V23.0415Z" fill="#F4DE5B" />
  <path d="M1.43051e-05 46.085H5.78833L5.78833 40.3255H1.43051e-05L1.43051e-05 46.085Z"
    fill="#F7CACA" />
  <path d="M179.21 34.5625H184.999V28.803H179.21V34.5625Z" fill="#FF6955" />
  <path d="M23.1206 28.8032H28.9089V23.0437H23.1206V28.8032Z" fill="#F4DE5B" />
  <path d="M34.6912 40.3228H40.4795V34.5632H34.6912V40.3228Z" fill="#F4DE5B" />
  <path d="M57.8118 40.3228H63.6001V34.5632H57.8118V40.3228Z" fill="#49E8E0" />
  <path d="M63.6023 11.522H69.3906V5.76247L63.6023 5.76247V11.522Z" fill="#49E8E0" />
  <path d="M75.1545 23.0415H80.9429V17.282H75.1545V23.0415Z" fill="#F7CACA" />
  <path d="M86.7085 11.522H92.4968V5.76247L86.7085 5.76247V11.522Z" fill="#F7CACA" />
  <path d="M127.213 5.75928L133.002 5.75928V-0.000236988L127.213 -0.000236988V5.75928Z"
    fill="#F4DE5B" />
  <path d="M213.902 46.085H219.69V40.3255H213.902V46.085Z" fill="#FF6955" />
  <path d="M184.996 5.75928L190.785 5.75928V-0.000236988L184.996 -0.000236988V5.75928Z"
    fill="#49E8E0" />
  <path d="M121.425 11.522H127.213V5.76247L121.425 5.76247V11.522Z" fill="#FF6955" />
  <path d="M219.671 11.522H225.459V5.76247L219.671 5.76247V11.522Z" fill="#F7CACA" />
  <path d="M237.025 11.522H242.813V5.76247L237.025 5.76247V11.522Z" fill="#F7CACA" />
  <path d="M150.307 11.522H156.096V5.76247L150.307 5.76247V11.522Z" fill="#49E8E0" />
  <path d="M138.775 17.2812H144.563V11.5217H138.775V17.2812Z" fill="#49E8E0" />
  <path d="M138.775 34.5625H144.563V23.0407H138.775V34.5625Z" fill="#49E8E0" />
  <path d="M150.307 23.0415H156.096V17.282H150.307V23.0415Z" fill="#49E8E0" />
  <path d="M150.307 40.3228H156.096V34.5632H150.307V40.3228Z" fill="#49E8E0" />
  <path d="M121.425 40.3228H127.213V34.5632H121.425V40.3228Z" fill="#FF6955" />
  <path d="M80.9258 28.8032H86.7141V23.0437H80.9258V28.8032Z" fill="#F7CACA" />
  <path d="M75.1545 40.3228H80.9429V28.801H75.1545V40.3228Z" fill="#F7CACA" />
  <path d="M109.839 34.5625H115.628V17.2812H109.839V34.5625Z" fill="#FF6955" />
  <path d="M225.462 40.3228H231.25V17.2819H225.462V40.3228Z" fill="#F7CACA" />
  <path d="M23.1206 11.522H28.9089V5.76247L23.1206 5.76247V11.522Z" fill="#F4DE5B" />
  <path d="M17.3347 28.8032H23.123V23.0437H17.3347V28.8032Z" fill="#141414" />
  <path d="M75.1545 28.8032H80.9429V23.0437H75.1545V28.8032Z" fill="#141414" />
</svg>
  