<svg width="64" height="65" viewBox="0 0 64 65" fill="none" xmlns="http://www.w3.org/2000/svg">
  <path fill-rule="evenodd" clip-rule="evenodd"
    d="M55 4.5V9.5H50V14.5H45V19.5H50V14.5H55V9.5H60V4.5H55ZM50 46.5H45L45 51.5H50V56.5H55V61.5H60V56.5H55V51.5H50L50 46.5ZM40 36.5H45H50H55V41.5H50H45H40V46.5V51.5V56.5H35V51.5V46.5V41.5V36.5H40ZM35 19.5V24.5V29.5H40H45H50H55V24.5H50H45H40V19.5V14.5V9.5H35V14.5V19.5Z"
    fill="#141414" />
  <path fill-rule="evenodd" clip-rule="evenodd"
    d="M9 61.5L9 56.5L14 56.5L14 51.5L19 51.5L19 46.5L14 46.5L14 51.5L9 51.5L9 56.5L4 56.5L4 61.5L9 61.5ZM14 19.5L19 19.5L19 14.5L14 14.5L14 9.5L9 9.5L9 4.5L4 4.5L4 9.5L9 9.5L9 14.5L14 14.5L14 19.5ZM24 29.5L19 29.5L14 29.5L9 29.5L9 24.5L14 24.5L19 24.5L24 24.5L24 19.5L24 14.5L24 9.5L29 9.5L29 14.5L29 19.5L29 24.5L29 29.5L24 29.5ZM29 46.5L29 41.5L29 36.5L24 36.5L19 36.5L14 36.5L9 36.5L9 41.5L14 41.5L19 41.5L24 41.5L24 46.5L24 51.5L24 56.5L29 56.5L29 51.5L29 46.5Z"
    fill="#141414" />
</svg>
  